<mxfile host="65bd71144e">
    <diagram id="P8h_B9r7mgU8A__mtsBJ" name="Page-1">
        <mxGraphModel dx="1096" dy="805" grid="1" gridSize="10" guides="1" tooltips="1" connect="1" arrows="1" fold="1" page="1" pageScale="1" pageWidth="850" pageHeight="1100" math="0" shadow="0">
            <root>
                <mxCell id="0"/>
                <mxCell id="1" parent="0"/>
                <mxCell id="5" value="&lt;font style=&quot;font-size: 22px;&quot;&gt;&lt;font style=&quot;font-size: 22px;&quot; color=&quot;#66ff66&quot;&gt;GET&lt;/font&gt; /consumer&lt;/font&gt;" style="rounded=1;whiteSpace=wrap;html=1;fontSize=24;strokeColor=#66FF66;" vertex="1" parent="1">
                    <mxGeometry x="60" y="330" width="230" height="40" as="geometry"/>
                </mxCell>
                <mxCell id="6" value="&lt;font style=&quot;font-size: 22px;&quot;&gt;&lt;font style=&quot;font-size: 22px;&quot; color=&quot;#40bfff&quot;&gt;POST&lt;/font&gt; /consumer&lt;/font&gt;" style="rounded=1;whiteSpace=wrap;html=1;fontSize=24;strokeColor=#40BFFF;" vertex="1" parent="1">
                    <mxGeometry x="60" y="420" width="230" height="40" as="geometry"/>
                </mxCell>
                <mxCell id="7" value="&lt;font style=&quot;font-size: 22px;&quot;&gt;&lt;font style=&quot;font-size: 22px;&quot; color=&quot;#ffff33&quot;&gt;PATCH&lt;/font&gt; /consumer&lt;/font&gt;" style="rounded=1;whiteSpace=wrap;html=1;fontSize=24;strokeColor=#FFFF33;" vertex="1" parent="1">
                    <mxGeometry x="60" y="510" width="230" height="40" as="geometry"/>
                </mxCell>
                <mxCell id="8" value="&lt;font style=&quot;font-size: 22px;&quot;&gt;&lt;font style=&quot;font-size: 22px;&quot; color=&quot;#ff0000&quot;&gt;DELETE&lt;/font&gt;&amp;nbsp;/consumer&lt;/font&gt;" style="rounded=1;whiteSpace=wrap;html=1;fontSize=24;strokeColor=#FF0000;" vertex="1" parent="1">
                    <mxGeometry x="60" y="560" width="230" height="40" as="geometry"/>
                </mxCell>
                <mxCell id="9" value="&lt;pre style=&quot;line-height: 60%;&quot;&gt;&lt;span style=&quot;font-size: 15px;&quot;&gt;&lt;font color=&quot;#7f00ff&quot;&gt;System Guard&lt;/font&gt;&lt;/span&gt;&lt;/pre&gt;" style="swimlane;whiteSpace=wrap;html=1;strokeColor=#7F00FF;fontSize=24;fontColor=#FF0000;startSize=30;" vertex="1" collapsed="1" parent="1">
                    <mxGeometry x="50" y="240" width="250" height="140" as="geometry">
                        <mxRectangle x="320" y="310" width="200" height="200" as="alternateBounds"/>
                    </mxGeometry>
                </mxCell>
                <mxCell id="10" value="&lt;pre style=&quot;line-height: 60%;&quot;&gt;&lt;span style=&quot;font-size: 15px;&quot;&gt;&lt;font color=&quot;#7f00ff&quot;&gt;Public Guard&lt;/font&gt;&lt;/span&gt;&lt;/pre&gt;" style="swimlane;whiteSpace=wrap;html=1;strokeColor=#7F00FF;fontSize=24;fontColor=#FF0000;startSize=30;" vertex="1" collapsed="1" parent="1">
                    <mxGeometry x="50" y="380" width="250" height="90" as="geometry">
                        <mxRectangle x="320" y="310" width="200" height="200" as="alternateBounds"/>
                    </mxGeometry>
                </mxCell>
                <mxCell id="11" value="&lt;pre style=&quot;line-height: 60%;&quot;&gt;&lt;span style=&quot;font-size: 15px;&quot;&gt;&lt;font color=&quot;#7f00ff&quot;&gt;Consumer Guard&lt;/font&gt;&lt;/span&gt;&lt;/pre&gt;" style="swimlane;whiteSpace=wrap;html=1;strokeColor=#7F00FF;fontSize=24;fontColor=#FF0000;startSize=30;" vertex="1" collapsed="1" parent="1">
                    <mxGeometry x="50" y="470" width="250" height="140" as="geometry">
                        <mxRectangle x="320" y="310" width="200" height="200" as="alternateBounds"/>
                    </mxGeometry>
                </mxCell>
                <mxCell id="19" value="&lt;font style=&quot;font-size: 22px;&quot;&gt;&lt;font style=&quot;font-size: 22px;&quot; color=&quot;#66ff66&quot;&gt;GET&lt;/font&gt; /suplier&lt;/font&gt;" style="rounded=1;whiteSpace=wrap;html=1;fontSize=24;strokeColor=#66FF66;" vertex="1" parent="1">
                    <mxGeometry x="60" y="750" width="230" height="40" as="geometry"/>
                </mxCell>
                <mxCell id="20" value="&lt;font style=&quot;font-size: 22px;&quot;&gt;&lt;font style=&quot;font-size: 22px;&quot; color=&quot;#40bfff&quot;&gt;POST&lt;/font&gt; /suplier&lt;/font&gt;" style="rounded=1;whiteSpace=wrap;html=1;fontSize=24;strokeColor=#40BFFF;" vertex="1" parent="1">
                    <mxGeometry x="60" y="840" width="230" height="40" as="geometry"/>
                </mxCell>
                <mxCell id="21" value="&lt;font style=&quot;font-size: 22px;&quot;&gt;&lt;font style=&quot;font-size: 22px;&quot; color=&quot;#ffff33&quot;&gt;PATCH&lt;/font&gt; /suplier&lt;/font&gt;" style="rounded=1;whiteSpace=wrap;html=1;fontSize=24;strokeColor=#FFFF33;" vertex="1" parent="1">
                    <mxGeometry x="60" y="930" width="230" height="40" as="geometry"/>
                </mxCell>
                <mxCell id="22" value="&lt;font style=&quot;font-size: 22px;&quot;&gt;&lt;font style=&quot;font-size: 22px;&quot; color=&quot;#ff0000&quot;&gt;DELETE&lt;/font&gt;&amp;nbsp;/suplier&lt;/font&gt;" style="rounded=1;whiteSpace=wrap;html=1;fontSize=24;strokeColor=#FF0000;" vertex="1" parent="1">
                    <mxGeometry x="60" y="980" width="230" height="40" as="geometry"/>
                </mxCell>
                <mxCell id="23" value="&lt;pre style=&quot;line-height: 60%;&quot;&gt;&lt;span style=&quot;font-size: 15px;&quot;&gt;&lt;font color=&quot;#7f00ff&quot;&gt;System Guard&lt;/font&gt;&lt;/span&gt;&lt;/pre&gt;" style="swimlane;whiteSpace=wrap;html=1;strokeColor=#7F00FF;fontSize=24;fontColor=#FF0000;startSize=30;" vertex="1" collapsed="1" parent="1">
                    <mxGeometry x="50" y="660" width="250" height="140" as="geometry">
                        <mxRectangle x="320" y="310" width="200" height="200" as="alternateBounds"/>
                    </mxGeometry>
                </mxCell>
                <mxCell id="24" value="&lt;pre style=&quot;line-height: 60%;&quot;&gt;&lt;span style=&quot;font-size: 15px;&quot;&gt;&lt;font color=&quot;#7f00ff&quot;&gt;Public Guard&lt;/font&gt;&lt;/span&gt;&lt;/pre&gt;" style="swimlane;whiteSpace=wrap;html=1;strokeColor=#7F00FF;fontSize=24;fontColor=#FF0000;startSize=30;" vertex="1" collapsed="1" parent="1">
                    <mxGeometry x="50" y="800" width="250" height="90" as="geometry">
                        <mxRectangle x="320" y="310" width="200" height="200" as="alternateBounds"/>
                    </mxGeometry>
                </mxCell>
                <mxCell id="25" value="&lt;pre style=&quot;line-height: 60%;&quot;&gt;&lt;span style=&quot;font-size: 15px;&quot;&gt;&lt;font color=&quot;#7f00ff&quot;&gt;Suplier Guard&lt;/font&gt;&lt;/span&gt;&lt;/pre&gt;" style="swimlane;whiteSpace=wrap;html=1;strokeColor=#7F00FF;fontSize=24;fontColor=#FF0000;startSize=30;" vertex="1" collapsed="1" parent="1">
                    <mxGeometry x="50" y="890" width="250" height="140" as="geometry">
                        <mxRectangle x="320" y="310" width="200" height="200" as="alternateBounds"/>
                    </mxGeometry>
                </mxCell>
                <mxCell id="26" value="&lt;font style=&quot;font-size: 22px;&quot;&gt;&lt;font style=&quot;font-size: 22px;&quot; color=&quot;#66ff66&quot;&gt;GET&lt;/font&gt; /history&lt;/font&gt;" style="rounded=1;whiteSpace=wrap;html=1;fontSize=24;strokeColor=#66FF66;" vertex="1" parent="1">
                    <mxGeometry x="60" y="1120" width="230" height="40" as="geometry"/>
                </mxCell>
                <mxCell id="27" value="&lt;font style=&quot;font-size: 22px;&quot;&gt;&lt;font style=&quot;font-size: 22px;&quot; color=&quot;#40bfff&quot;&gt;POST&lt;/font&gt; /history&lt;/font&gt;" style="rounded=1;whiteSpace=wrap;html=1;fontSize=24;strokeColor=#40BFFF;" vertex="1" parent="1">
                    <mxGeometry x="60" y="1210" width="230" height="40" as="geometry"/>
                </mxCell>
                <mxCell id="28" value="&lt;font style=&quot;font-size: 22px;&quot;&gt;&lt;font style=&quot;font-size: 22px;&quot; color=&quot;#ffff33&quot;&gt;PATCH&lt;/font&gt; /history&lt;/font&gt;" style="rounded=1;whiteSpace=wrap;html=1;fontSize=24;strokeColor=#FFFF33;" vertex="1" parent="1">
                    <mxGeometry x="60" y="1300" width="230" height="40" as="geometry"/>
                </mxCell>
                <mxCell id="30" value="&lt;pre style=&quot;line-height: 60%;&quot;&gt;&lt;span style=&quot;font-size: 15px;&quot;&gt;&lt;font color=&quot;#7f00ff&quot;&gt;System Guard&lt;/font&gt;&lt;/span&gt;&lt;/pre&gt;" style="swimlane;whiteSpace=wrap;html=1;strokeColor=#7F00FF;fontSize=24;fontColor=#FF0000;startSize=30;" vertex="1" collapsed="1" parent="1">
                    <mxGeometry x="50" y="1080" width="250" height="90" as="geometry">
                        <mxRectangle x="320" y="310" width="200" height="200" as="alternateBounds"/>
                    </mxGeometry>
                </mxCell>
                <mxCell id="32" value="&lt;pre style=&quot;line-height: 60%;&quot;&gt;&lt;span style=&quot;font-size: 15px;&quot;&gt;&lt;font color=&quot;#7f00ff&quot;&gt;Suplier Guard&lt;/font&gt;&lt;/span&gt;&lt;/pre&gt;" style="swimlane;whiteSpace=wrap;html=1;strokeColor=#7F00FF;fontSize=24;fontColor=#FF0000;startSize=30;" vertex="1" collapsed="1" parent="1">
                    <mxGeometry x="50" y="1260" width="250" height="90" as="geometry">
                        <mxRectangle x="320" y="310" width="200" height="200" as="alternateBounds"/>
                    </mxGeometry>
                </mxCell>
                <mxCell id="33" value="&lt;font style=&quot;font-size: 22px;&quot;&gt;&lt;font style=&quot;font-size: 22px;&quot; color=&quot;#66ff66&quot;&gt;GET&lt;/font&gt; /confirmation&lt;/font&gt;" style="rounded=1;whiteSpace=wrap;html=1;fontSize=24;strokeColor=#66FF66;" vertex="1" parent="1">
                    <mxGeometry x="60" y="80" width="230" height="40" as="geometry"/>
                </mxCell>
                <mxCell id="34" value="&lt;font color=&quot;#40bfff&quot;&gt;POST&lt;/font&gt; /confirmation" style="rounded=1;whiteSpace=wrap;html=1;fontSize=24;strokeColor=#40BFFF;" vertex="1" parent="1">
                    <mxGeometry x="60" y="130" width="230" height="40" as="geometry"/>
                </mxCell>
                <mxCell id="37" value="&lt;pre style=&quot;line-height: 60%;&quot;&gt;&lt;span style=&quot;font-size: 15px;&quot;&gt;&lt;font color=&quot;#7f00ff&quot;&gt;Public Guard&lt;/font&gt;&lt;/span&gt;&lt;/pre&gt;" style="swimlane;whiteSpace=wrap;html=1;strokeColor=#7F00FF;fontSize=24;fontColor=#FF0000;startSize=30;" vertex="1" collapsed="1" parent="1">
                    <mxGeometry x="50" y="40" width="250" height="140" as="geometry">
                        <mxRectangle x="320" y="310" width="200" height="200" as="alternateBounds"/>
                    </mxGeometry>
                </mxCell>
                <mxCell id="40" value="&lt;font color=&quot;#ffffff&quot;&gt;Confirmação se o codigo está correto. Caso sim, criará o user.&lt;br&gt;(faz o hash e compara no banco)&lt;br&gt;&lt;/font&gt;" style="text;html=1;fontSize=18;fontStyle=1;verticalAlign=middle;align=center;labelBackgroundColor=none;fillColor=none;" vertex="1" parent="1">
                    <mxGeometry x="410" y="70" width="330" height="40" as="geometry"/>
                </mxCell>
                <mxCell id="41" value="&lt;font color=&quot;#ffffff&quot;&gt;Usado pela API apos o POST de user (Consumer/Suplier).&lt;br&gt;Guardará o mock do user, gerar e salvar um codigo hashado &lt;br&gt;em Argon2 e tbm vai ser resposvel por mandar &lt;br&gt;o email com o codigo&lt;br&gt;&lt;/font&gt;" style="text;html=1;fontSize=18;fontStyle=1;verticalAlign=middle;align=center;labelBackgroundColor=none;fillColor=none;" vertex="1" parent="1">
                    <mxGeometry x="290" y="110" width="560" height="110" as="geometry"/>
                </mxCell>
                <mxCell id="43" value="&lt;font style=&quot;font-size: 22px;&quot;&gt;&lt;font style=&quot;font-size: 22px;&quot; color=&quot;#66ff66&quot;&gt;GET&lt;/font&gt; /consumer/:id&lt;/font&gt;" style="rounded=1;whiteSpace=wrap;html=1;fontSize=24;strokeColor=#66FF66;" vertex="1" parent="1">
                    <mxGeometry x="60" y="280" width="230" height="40" as="geometry"/>
                </mxCell>
                <mxCell id="44" value="Getters, contará com filtros paginações etc" style="text;strokeColor=none;fillColor=none;html=1;fontSize=22;fontStyle=1;verticalAlign=middle;align=center;labelBackgroundColor=none;fontColor=#FFFFFF;" vertex="1" parent="1">
                    <mxGeometry x="525" y="300" width="100" height="40" as="geometry"/>
                </mxCell>
                <mxCell id="45" value="Trata o que chega e manda pro POST /confirmation" style="text;strokeColor=none;fillColor=none;html=1;fontSize=22;fontStyle=1;verticalAlign=middle;align=center;labelBackgroundColor=none;fontColor=#FFFFFF;" vertex="1" parent="1">
                    <mxGeometry x="525" y="420" width="100" height="40" as="geometry"/>
                </mxCell>
                <mxCell id="46" value="..." style="text;strokeColor=none;fillColor=none;html=1;fontSize=24;fontStyle=1;verticalAlign=middle;align=center;labelBackgroundColor=none;fontColor=#FFFFFF;" vertex="1" parent="1">
                    <mxGeometry x="310" y="540" width="100" height="40" as="geometry"/>
                </mxCell>
                <mxCell id="47" value="&lt;font style=&quot;font-size: 22px;&quot;&gt;&lt;font style=&quot;font-size: 22px;&quot; color=&quot;#66ff66&quot;&gt;GET&lt;/font&gt; /suplier/:id&lt;/font&gt;" style="rounded=1;whiteSpace=wrap;html=1;fontSize=24;strokeColor=#66FF66;" vertex="1" parent="1">
                    <mxGeometry x="60" y="700" width="230" height="40" as="geometry"/>
                </mxCell>
                <mxCell id="48" value="Getters, contará com filtros paginações etc" style="text;strokeColor=none;fillColor=none;html=1;fontSize=22;fontStyle=1;verticalAlign=middle;align=center;labelBackgroundColor=none;fontColor=#FFFFFF;" vertex="1" parent="1">
                    <mxGeometry x="520" y="720" width="100" height="40" as="geometry"/>
                </mxCell>
                <mxCell id="49" value="Trata o que chega e manda pro POST /confirmation" style="text;strokeColor=none;fillColor=none;html=1;fontSize=22;fontStyle=1;verticalAlign=middle;align=center;labelBackgroundColor=none;fontColor=#FFFFFF;" vertex="1" parent="1">
                    <mxGeometry x="520" y="840" width="100" height="40" as="geometry"/>
                </mxCell>
                <mxCell id="51" value="..." style="text;strokeColor=none;fillColor=none;html=1;fontSize=24;fontStyle=1;verticalAlign=middle;align=center;labelBackgroundColor=none;fontColor=#FFFFFF;" vertex="1" parent="1">
                    <mxGeometry x="300" y="960" width="100" height="40" as="geometry"/>
                </mxCell>
                <mxCell id="52" value="GET, qualquer do sistema pode pegar&lt;br&gt;(Consumer/Suplier)&lt;br&gt;Desde que seja deles de fato" style="text;strokeColor=none;fillColor=none;html=1;fontSize=22;fontStyle=1;verticalAlign=middle;align=center;labelBackgroundColor=none;fontColor=#FFFFFF;" vertex="1" parent="1">
                    <mxGeometry x="525" y="1120" width="100" height="40" as="geometry"/>
                </mxCell>
                <mxCell id="53" value="Uma &quot;compra&quot; só pode ser requisitada&lt;br&gt;pelo Consumer" style="text;strokeColor=none;fillColor=none;html=1;fontSize=22;fontStyle=1;verticalAlign=middle;align=center;labelBackgroundColor=none;fontColor=#FFFFFF;" vertex="1" parent="1">
                    <mxGeometry x="520" y="1220" width="100" height="40" as="geometry"/>
                </mxCell>
                <mxCell id="55" value="O pedido so pode ser atualizado&lt;br&gt;pelo Suplier" style="text;strokeColor=none;fillColor=none;html=1;fontSize=22;fontStyle=1;verticalAlign=middle;align=center;labelBackgroundColor=none;fontColor=#FFFFFF;" vertex="1" parent="1">
                    <mxGeometry x="525" y="1300" width="100" height="40" as="geometry"/>
                </mxCell>
                <mxCell id="57" value="&lt;pre style=&quot;line-height: 60%;&quot;&gt;&lt;span style=&quot;font-size: 15px;&quot;&gt;&lt;font color=&quot;#7f00ff&quot;&gt;Consumer Guard&lt;/font&gt;&lt;/span&gt;&lt;/pre&gt;" style="swimlane;whiteSpace=wrap;html=1;strokeColor=#7F00FF;fontSize=24;fontColor=#FF0000;startSize=30;" vertex="1" collapsed="1" parent="1">
                    <mxGeometry x="50" y="1170" width="250" height="90" as="geometry">
                        <mxRectangle x="320" y="310" width="200" height="200" as="alternateBounds"/>
                    </mxGeometry>
                </mxCell>
            </root>
        </mxGraphModel>
    </diagram>
</mxfile>